<svg xmlns="http://www.w3.org/2000/svg" viewBox="0 0 64 64" width="120" height="120">
  <path fill="#f5d1ff" d="M32 58s-1-.4-2-1.3C19 47.3 8 37 8 24.7 8 16 14 10 22 10c4.2 0 8.2 2.1 10 5.4C34 12.1 38 10 42 10c8 0 14 6 14 14.7 0 12.3-11 22.6-22 32-1 .9-2 1.3-2 1.3z"></path>
  <path fill="none" stroke="#8200ff" stroke-width="2.5" d="M32 58s-1-.4-2-1.3C19 47.3 8 37 8 24.7 8 16 14 10 22 10c4.2 0 8.2 2.1 10 5.4C34 12.1 38 10 42 10c8 0 14 6 14 14.7 0 12.3-11 22.6-22 32-1 .9-2 1.3-2 1.3z"></path>
</svg>
